<?xml version="1.0" encoding="UTF-8" standalone="no"?>
<!DOCTYPE svg PUBLIC "-//W3C//DTD SVG 1.1//EN" "http://www.w3.org/Graphics/SVG/1.1/DTD/svg11.dtd">
<svg version="1.1" xmlns="http://www.w3.org/2000/svg" xmlns:dc="http://purl.org/dc/elements/1.1/" xmlns:xl="http://www.w3.org/1999/xlink" viewBox="736.3074 341.43247 121.0017 30" width="121.0017" height="30">
  <defs/>
  <metadata> Produced by OmniGraffle 7.24.4\n2025-05-08 04:54:18 +0000</metadata>
  <g id="Canvas_1" fill="none" fill-opacity="1" stroke-dasharray="none" stroke-opacity="1" stroke="none">
    <title>Canvas 1</title>
    <g id="Canvas_1_Layer_1">
      <title>Layer 1</title>
      <g id="Group_128">
        <g id="Group_129">
          <g id="Group_130">
            <g id="Graphic_131">
              <path d="M 743.0294 371.43247 L 736.3074 341.43247 L 741.2947 341.43247 L 745.3062 360.7182 C 745.37845 361.00973 745.4507 361.40915 745.523 361.91644 C 745.5953 362.42956 745.6676 362.9631 745.73985 363.517 C 745.8121 364.07095 745.8724 364.5666 745.92055 365.0039 L 746.10125 365.0039 C 746.1494 364.65405 746.1928 364.27504 746.23135 363.86687 C 746.2651 363.4587 746.3133 363.05055 746.3759 362.6424 C 746.4337 362.2342 746.4867 361.86104 746.5349 361.52285 C 746.5831 361.1905 746.61925 360.92227 746.6433 360.7182 L 750.3657 341.43247 L 756.401 341.43247 L 760.1234 360.7182 C 760.1957 361.00973 760.268 361.40915 760.3403 361.91644 C 760.4125 362.42956 760.4848 362.9631 760.5571 363.517 C 760.6294 364.07095 760.6896 364.5666 760.7378 365.0039 L 760.9185 365.0039 C 760.9667 364.6832 761.0197 364.3246 761.0775 363.9281 C 761.14015 363.53743 761.2004 363.14384 761.2582 362.74734 C 761.32085 362.35667 761.3883 361.9864 761.4606 361.63655 C 761.5329 361.2867 761.5931 360.98058 761.6413 360.7182 L 765.6528 341.43247 L 770.0618 341.43247 L 763.3037 371.43247 L 757.9189 371.43247 L 753.9074 351.75317 C 753.8351 351.345 753.758 350.8698 753.6761 350.3275 C 753.5894 349.79107 753.5171 349.2517 753.4593 348.70944 C 753.3966 348.173 753.3412 347.7007 753.293 347.29253 L 753.1485 347.29253 C 753.1244 347.72985 753.0834 348.2313 753.0256 348.7969 C 752.963 349.36833 752.8955 349.91644 752.8232 350.4412 C 752.7509 350.966 752.6787 351.4033 752.6064 351.75317 L 748.631 371.43247 Z" fill="#2c3e50"/>
            </g>
          </g>
        </g>
      </g>
      <g id="Group_140">
        <g id="Group_141">
          <g id="Group_142">
            <g id="Graphic_143">
              <path d="M 777.9739 371.43247 C 775.8778 371.43247 774.119 371.0029 772.6975 370.14376 C 771.276 369.29043 770.2039 367.9785 769.4811 366.208 C 768.7583 364.43746 768.3969 362.18803 768.3969 359.4597 C 768.3969 356.7023 768.7583 354.44417 769.4811 352.68526 C 770.2039 350.93215 771.2688 349.62603 772.6758 348.7669 C 774.0877 347.91356 775.8176 347.4869 777.8655 347.4869 C 779.7929 347.4869 781.4192 347.89905 782.7443 348.72335 C 784.0694 349.55347 785.0693 350.83057 785.7439 352.55465 C 786.4185 354.28453 786.7558 356.51365 786.7558 359.242 L 786.7558 360.80934 L 773.4926 360.80934 C 773.5408 362.1445 773.7166 363.27646 774.0202 364.20526 C 774.319 365.13406 774.7864 365.82195 775.4224 366.26893 C 776.0633 366.72172 776.9138 366.9481 777.9739 366.9481 C 778.5521 366.9481 779.0749 366.86104 779.54235 366.6869 C 780.0146 366.51274 780.4193 366.2515 780.7566 365.9032 C 781.0939 365.5549 781.359 365.11955 781.5517 364.5971 C 781.7445 364.07465 781.8408 363.47964 781.8408 362.81206 L 786.7558 362.81206 C 786.7558 364.2633 786.539 365.5259 786.1053 366.5998 C 785.6716 367.67374 785.0693 368.5648 784.2983 369.273 C 783.5273 369.98703 782.607 370.5269 781.5373 370.8926 C 780.4627 371.2525 779.2749 371.43247 777.9739 371.43247 Z M 773.56485 356.97805 L 781.58785 356.97805 C 781.58785 356.1073 781.4987 355.35265 781.3204 354.7141 C 781.1373 354.07555 780.88915 353.5531 780.5759 353.14676 C 780.2627 352.7404 779.8845 352.44145 779.4412 352.2499 C 778.993 352.06413 778.4919 351.97125 777.93775 351.97125 C 777.0222 351.97125 776.2585 352.1512 775.6465 352.5111 C 775.0297 352.87682 774.5599 353.4283 774.23705 354.16553 C 773.9094 354.90857 773.6853 355.84608 773.56485 356.97805 Z" fill="#2c3e50"/>
            </g>
          </g>
        </g>
      </g>
      <g id="Group_144">
        <g id="Group_145">
          <g id="Group_146">
            <g id="Graphic_147">
              <path d="M 799.0458 371.43247 C 797.8171 371.43247 796.6919 371.1549 795.6704 370.5998 C 794.644 370.03927 793.8176 369.18757 793.1912 368.0447 L 792.9382 368.0447 L 792.5407 370.94267 L 788.4208 370.94267 L 788.4208 341.43247 L 793.4442 341.43247 L 793.4442 351.84063 L 793.661 351.84063 C 794.0465 351.2148 794.5163 350.68417 795.07045 350.2488 C 795.6246 349.81342 796.251 349.49233 796.9497 349.28553 C 797.6484 349.08417 798.4073 348.9835 799.2265 348.9835 C 800.7203 348.9835 802.0285 349.37805 803.1513 350.16716 C 804.2692 350.9563 805.1414 352.1726 805.7678 353.81614 C 806.3942 355.46512 806.7074 357.58213 806.7074 360.16716 C 806.7074 362.7522 806.4014 364.87465 805.7895 366.5345 C 805.1727 368.19438 804.2933 369.4243 803.1513 370.2243 C 802.0044 371.02975 800.636 371.43247 799.0458 371.43247 Z M 797.4918 366.7794 C 798.5037 366.7794 799.306 366.55356 799.8987 366.10186 C 800.4866 365.6556 800.913 364.9835 801.178 364.08553 C 801.4431 363.18757 801.5756 362.0583 801.5756 360.69778 L 801.5756 359.759 C 801.5756 358.39846 801.4431 357.26104 801.178 356.34676 C 800.913 355.4379 800.4866 354.75764 799.8987 354.30594 C 799.306 353.8597 798.5037 353.63655 797.4918 353.63655 C 796.769 353.63655 796.1546 353.77805 795.6487 354.06104 C 795.1427 354.34948 794.7283 354.75764 794.4055 355.28553 C 794.0778 355.81887 793.8297 356.4801 793.661 357.2692 C 793.49235 358.0583 793.408 358.92907 793.408 359.88145 L 793.408 360.61614 C 793.408 361.89506 793.5526 362.9971 793.8417 363.92227 C 794.1308 364.84744 794.5765 365.5549 795.1789 366.0447 C 795.7812 366.5345 796.5522 366.7794 797.4918 366.7794 Z" fill="#2c3e50"/>
            </g>
          </g>
        </g>
      </g>
      <g id="Group_160">
        <g id="Graphic_163">
          <path d="M 805.52775 370.3029 L 834.367 357.6156 L 828.0893 365.59866 Z" fill="#e84b3b"/>
        </g>
        <g id="Graphic_162">
          <path d="M 805.52775 344.92832 L 834.367 357.6156 L 828.0893 349.63256 Z" fill="#e84b3b"/>
        </g>
        <g id="Graphic_161">
          <path d="M 812.3994 346.27047 L 813.8883 357.63093 L 812.3994 368.9914 L 810.9105 357.63093 Z" fill="#e84b3b"/>
          <path d="M 812.3994 346.27047 L 813.8883 357.63093 L 812.3994 368.9914 L 810.9105 357.63093 Z" stroke="black" stroke-linecap="round" stroke-linejoin="round" stroke-width="0"/>
        </g>
      </g>
      <g id="Group_164">
        <g id="Graphic_166">
          <path d="M 834.9236 343.5605 L 846.1164 371.3605 L 839.0737 365.309 Z" fill="#3498dc"/>
        </g>
        <g id="Graphic_165">
          <path d="M 857.3091 343.5605 L 846.1164 371.3605 L 853.159 365.309 Z" fill="#3498dc"/>
        </g>
      </g>
    </g>
  </g>
</svg>
